# xmcd
#
# Track frame offsets: 
#        150
#        17430
#        28460
#        38472
#        50247
#        65027
#        77197
#        88462
#        103542
#        118327
#        128820
#        141240
#
# Disc length: 2048 seconds
#
# Revision: 1
# Processed by: cddbd v1.5.2PL0 Copyright (c) Steve Scherf et al.
# Submitted via: ExactAudioCopy v0.95b4
#
DISCID=b007fe0c
DTITLE=Chris LeDoux - Western Tunesmith
DYEAR=1980
DGENRE=Country
TTITLE0=Country Star
TTITLE1=Ten Seconds In The Saddle
TTITLE2=Cowboy And The Rose
TTITLE3=Old Paint
TTITLE4=Dream On Cowboy
TTITLE5=Dirt And Sweat Cowboy
TTITLE6=Navajo Wrangler
TTITLE7=Jeans And Good Leather
TTITLE8=Come Riding Joe Cy
TTITLE9=Get Along Little Doggies
TTITLE10=My Heroes Have Always Been Cowboys
TTITLE11=I Don't Want To Be A Cowboy Anymore
EXTD=
EXTT0=
EXTT1=
EXTT2=
EXTT3=
EXTT4=
EXTT5=
EXTT6=
EXTT7=
EXTT8=
EXTT9=
EXTT10=
EXTT11=
PLAYORDER=
